<svg xmlns="http://www.w3.org/2000/svg" xmlns:xlink="http://www.w3.org/1999/xlink" width="500" viewBox="0 0 375 374.999991" height="500" preserveAspectRatio="xMidYMid meet" version="1.0"><defs><clipPath id="01f2837fde"><path d="M 14 60 L 366.3125 60 L 366.3125 312 L 14 312 Z M 14 60 " clip-rule="nonzero"/></clipPath></defs><g clip-path="url(#01f2837fde)"><path fill="#000000" d="M 62.339844 60.125 C 42.992188 59.960938 23.128906 68.460938 17.316406 84.320312 C 8.671875 103.460938 22.539062 125.824219 46.222656 132.714844 C 46.296875 132.734375 46.40625 132.695312 46.476562 132.714844 C 72.300781 142.050781 104.445312 146.609375 132.433594 175.570312 L 142.921875 186.4375 L 133.457031 196.074219 C 105.386719 224.988281 73.351562 229.4375 47.5 238.726562 C 47.445312 238.753906 47.3125 238.699219 47.246094 238.726562 C 23.628906 245.550781 9.933594 267.800781 18.335938 286.910156 C 18.367188 286.96875 18.308594 287.058594 18.335938 287.117188 C 25.523438 306.457031 53.742188 315.019531 76.410156 309.878906 C 76.484375 309.863281 76.589844 309.890625 76.664062 309.878906 C 99.882812 305.828125 118.890625 286.9375 113.503906 267.84375 C 110.84375 258.421875 107.441406 254.046875 104.292969 251.4375 C 102.71875 250.132812 101.34375 249.320312 100.457031 248.566406 C 99.566406 247.816406 95.832031 245.722656 95.832031 245.722656 C 98.144531 244.039062 99.496094 243.242188 101.480469 242.007812 C 104.445312 240.074219 109.625 237.699219 116.316406 234.828125 C 129.582031 229.140625 149.121094 221.109375 171.574219 208.171875 C 212.183594 231.257812 264.949219 261.15625 294.109375 277.683594 C 323.273438 294.214844 353.125 285.878906 365.484375 278.300781 L 209.078125 186.488281 L 366.378906 93.78125 C 341.996094 78.742188 314.175781 85.109375 295.644531 94.164062 C 254.441406 117.535156 213.109375 140.792969 171.824219 164.085938 C 153 153.796875 132.800781 144.359375 115.289062 136.816406 C 108.589844 133.929688 103.421875 131.578125 100.453125 129.636719 C 98.964844 128.667969 95.207031 126.5625 95.207031 126.5625 C 98.644531 124.558594 102.285156 120.867188 104.929688 118.054688 C 107.574219 115.238281 110.6875 111.066406 112.476562 103.800781 C 117.207031 84.59375 98.84375 65.652344 75.636719 61.5625 C 71.152344 60.570312 66.304688 60.421875 62.335938 60.125 Z M 59.78125 76.324219 C 68.414062 75.917969 77.328125 78.28125 83.058594 82.886719 C 91.648438 89.785156 93.28125 99.289062 89.96875 107.082031 C 86.652344 114.875 78.703125 120.636719 67.453125 120.617188 L 67.199219 120.617188 C 56.886719 121.09375 46.832031 116.332031 40.847656 109.335938 C 34.867188 102.34375 33.160156 93.648438 39.058594 86.167969 L 39.058594 85.960938 C 43.132812 79.753906 51.148438 76.730469 59.78125 76.324219 Z M 66.433594 250.824219 C 67.195312 250.8125 67.984375 250.796875 68.476562 250.824219 C 79.730469 250.824219 87.695312 256.570312 90.992188 264.359375 C 94.289062 272.148438 92.691406 281.671875 84.082031 288.554688 C 78.34375 293.144531 69.1875 295.726562 60.546875 295.320312 C 51.910156 294.917969 44.140625 291.695312 40.082031 285.480469 L 39.828125 285.273438 C 34.136719 278.019531 35.789062 269.808594 41.363281 262.925781 C 46.933594 256.039062 56.492188 250.96875 66.433594 250.824219 Z M 66.433594 250.824219 " fill-opacity="0.3" fill-rule="nonzero"/></g></svg>